<?xml version="1.0" standalone="no"?>
<!DOCTYPE svg PUBLIC "-//W3C//DTD SVG 20010904//EN"
 "http://www.w3.org/TR/2001/REC-SVG-20010904/DTD/svg10.dtd">
<svg version="1.0" xmlns="http://www.w3.org/2000/svg"
 width="338.000000pt" height="338.000000pt" viewBox="0 0 338.000000 338.000000"
 preserveAspectRatio="xMidYMid meet">

<g transform="translate(0.000000,338.000000) scale(0.100000,-0.100000)"
fill="#000000" stroke="none">
<path d="M620 3280 l0 -100 641 0 c553 0 650 -2 703 -16 207 -53 383 -232 432
-440 22 -93 14 -245 -16 -331 -46 -131 -155 -261 -270 -322 -34 -18 -341 -126
-683 -240 -342 -115 -642 -218 -667 -231 -84 -42 -156 -98 -226 -173 -80 -86
-127 -160 -161 -255 -50 -136 -53 -179 -53 -693 l0 -479 95 0 95 0 0 93 c0
258 49 404 181 536 31 31 83 72 117 92 43 25 279 108 809 283 420 139 785 266
832 289 385 187 627 599 608 1032 -25 528 -414 962 -934 1040 -79 12 -234 15
-800 15 l-703 0 0 -100z"/>
<path d="M2375 1040 c-119 -24 -241 -98 -313 -189 -77 -97 -112 -198 -112
-326 0 -147 47 -261 150 -366 74 -75 176 -130 274 -148 34 -6 193 -11 373 -11
l313 0 0 99 0 99 -117 4 c-111 3 -121 5 -181 37 -72 39 -119 88 -159 163 l-28
53 -3 298 -3 297 -77 -1 c-42 -1 -95 -5 -117 -9z"/>
</g>
</svg>
